# xmcd
#
# Track frame offsets: 
#        150
#        14845
#        27342
#        45997
#        62859
#        81566
#        97131
#        118636
#        132858
#        152255
#        168817
#        182064
#        198701
#        211333
#        230940
#        244330
#
# Disc length: 3539 seconds
#
# Revision: 0
# Processed by: cddbd v1.5.2PL0 Copyright (c) Steve Scherf et al.
# Submitted via: ExactAudioCopy v1.0b1
#
DISCID=e50dd110
DTITLE=Saffire - Havin' The Last Word
DYEAR=2009
DGENRE=Blues - Acustic Blues - Piano Blues
TTITLE0=Goin' Down The River
TTITLE1=Nothin' In Your House
TTITLE2=Kitchen Man
TTITLE3=Somebody's Gotta Give
TTITLE4=Bald Headed Blues
TTITLE5=Since You Been Gone
TTITLE6=Blues Lullaby
TTITLE7=Travelin' At The Speed Of Love
TTITLE8=I Can Do Bad All By Myself
TTITLE9=Too Much Butt
TTITLE10=Haste Makes Waste
TTITLE11=Locked Up
TTITLE12=Walkin' Home To You
TTITLE13=Bald Eagle
TTITLE14=I'm Growing Older
TTITLE15=The Bad Times
EXTD=
EXTT0=
EXTT1=
EXTT2=
EXTT3=
EXTT4=
EXTT5=
EXTT6=
EXTT7=
EXTT8=
EXTT9=
EXTT10=
EXTT11=
EXTT12=
EXTT13=
EXTT14=
EXTT15=
PLAYORDER=
